<!-- <svg xmlns="http://www.w3.org/2000/svg" viewBox="0 0 595.72 195.08"><defs><style>.cls-1{fill:#0b7;}.cls-2{fill:#031649;}</style></defs><title>zero-logo-1</title><g id="Layer_2" data-name="Layer 2"><g id="Layer_1-2" data-name="Layer 1"><path class="cls-1" d="M32,32H141.82L173.38.39A30.22,30.22,0,0,0,168.5,0H30.94A30.94,30.94,0,0,0,0,30.94V168.5a30.22,30.22,0,0,0,.39,4.88L32,141.82Z"/><path class="cls-2" d="M163.13,163.13H53.26L21.7,194.69a31.4,31.4,0,0,0,4.88.39H164.14a30.94,30.94,0,0,0,30.94-30.94V26.58a31.4,31.4,0,0,0-.39-4.88L163.13,53.26Z"/><polyline class="cls-2" points="83.74 132.63 132.15 132.63 132.15 84.23"/><polyline class="cls-1" points="110.37 62.93 61.96 62.93 61.96 111.33"/><path class="cls-1" d="M313.68,150.27V170H234.77v-15.6l44.42-52.74H235.9V81.93h75.89V97.54l-44.43,52.73Z"/><path class="cls-1" d="M395.36,150.78V170H324.63V81.93h69.09v19.26H349.3V116h39.14v18.63H349.3v16.11Z"/><path class="cls-1" d="M447.72,146.62h-13.6V170H409.2V81.93h40.28q12,0,20.76,4a30.77,30.77,0,0,1,13.6,11.33,31.08,31.08,0,0,1,4.78,17.3,30.68,30.68,0,0,1-4.47,16.68,30.3,30.3,0,0,1-12.77,11.14l19,27.68H463.7ZM459.55,105q-3.92-3.41-11.58-3.4H434.12v25.8H448q7.66,0,11.58-3.34t3.9-9.5Q463.45,108.37,459.55,105Z"/><path class="cls-1" d="M521.65,165.88a45,45,0,0,1,0-79.79,56.21,56.21,0,0,1,50.22,0,45,45,0,0,1,0,79.79,56.21,56.21,0,0,1-50.22,0ZM558.85,148a22.61,22.61,0,0,0,8.55-8.87,29,29,0,0,0,0-26.31,22.67,22.67,0,0,0-8.55-8.87,24.76,24.76,0,0,0-24.17,0,22.7,22.7,0,0,0-8.56,8.87,29.13,29.13,0,0,0,0,26.31,22.63,22.63,0,0,0,8.56,8.87,24.76,24.76,0,0,0,24.17,0Z"/><path class="cls-2" d="M264.05,53.72H249l-2.8,6.92H235.94l15.71-35.58h9.91l15.76,35.58H266.85ZM261.1,46.3l-4.57-11.38L252,46.3Z"/><path class="cls-2" d="M287.58,60.28a20.42,20.42,0,0,1-6.6-2.85l3.3-7.42a21.24,21.24,0,0,0,5.54,2.54,20.9,20.9,0,0,0,6.2,1q5.79,0,5.79-2.9a2.4,2.4,0,0,0-1.65-2.26,30.24,30.24,0,0,0-5.31-1.55A51.57,51.57,0,0,1,288.14,45a11.33,11.33,0,0,1-4.62-3.18,8.58,8.58,0,0,1-1.93-5.9A10.25,10.25,0,0,1,283.36,30a12,12,0,0,1,5.32-4.14,21.77,21.77,0,0,1,8.66-1.52,30.83,30.83,0,0,1,6.91.78,21.26,21.26,0,0,1,6,2.32l-3.1,7.47a20.71,20.71,0,0,0-9.86-2.75,8.3,8.3,0,0,0-4.37.89,2.69,2.69,0,0,0-1.37,2.31,2.29,2.29,0,0,0,1.62,2.14A29.26,29.26,0,0,0,298.41,39a49.23,49.23,0,0,1,6.73,1.86A11.67,11.67,0,0,1,309.77,44a8.44,8.44,0,0,1,2,5.87A10,10,0,0,1,310,55.65a12.22,12.22,0,0,1-5.34,4.15A21.63,21.63,0,0,1,296,61.35,33,33,0,0,1,287.58,60.28Z"/><path class="cls-2" d="M344.31,26.66a12.08,12.08,0,0,1,7.42,11.56,12,12,0,0,1-7.42,11.51,20.29,20.29,0,0,1-8.39,1.6h-6.2v9.31H319.65V25.06h16.27A20.29,20.29,0,0,1,344.31,26.66ZM340,42.06a4.78,4.78,0,0,0,1.57-3.84A4.83,4.83,0,0,0,340,34.36,6.94,6.94,0,0,0,335.31,33h-5.59V43.41h5.59A7,7,0,0,0,340,42.06Z"/><path class="cls-2" d="M358.59,59.47a5.5,5.5,0,0,1-1.68-4.12,5.45,5.45,0,0,1,1.65-4.12,6.28,6.28,0,0,1,8.31,0,5.47,5.47,0,0,1,1.63,4.12,5.55,5.55,0,0,1-1.65,4.12,6.07,6.07,0,0,1-8.26,0Z"/><path class="cls-2" d="M410.63,25.06V60.64h-8.28l-15.71-19v19h-9.86V25.06h8.29l15.7,19v-19Z"/><path class="cls-2" d="M449.62,52.86v7.78H421.05V25.06H449v7.77H431v6h15.8v7.52H431v6.51Z"/><path class="cls-2" d="M466.09,33H455.16v-8H487v8H476.15v27.6H466.09Z"/></g></g></svg> -->
<svg xmlns="http://www.w3.org/2000/svg" xmlns:xlink="http://www.w3.org/1999/xlink" width="385.208" height="400.034" viewBox="0 0 385.208 400.034">
  <defs>
    <style>
      .cls-1 {
        fill: #1c1a1d;
      }

      .cls-2 {
        fill: url(#radial-gradient);
      }

      .cls-3 {
        fill: url(#radial-gradient-2);
      }

      .cls-4 {
        fill: url(#radial-gradient-3);
      }

      .cls-5 {
        fill: url(#radial-gradient-4);
      }

      .cls-6 {
        fill: url(#radial-gradient-5);
      }

      .cls-7 {
        fill: url(#radial-gradient-6);
      }

      .cls-12, .cls-8 {
        opacity: 0.3;
      }

      .cls-8 {
        fill: url(#radial-gradient-7);
      }

      .cls-13, .cls-9 {
        opacity: 0.75;
      }

      .cls-9 {
        fill: url(#radial-gradient-8);
      }

      .cls-10, .cls-14 {
        opacity: 0.5;
      }

      .cls-10 {
        fill: url(#radial-gradient-9);
      }

      .cls-11 {
        fill: url(#radial-gradient-10);
      }

      .cls-12 {
        fill: url(#radial-gradient-11);
      }

      .cls-13 {
        fill: url(#radial-gradient-12);
      }

      .cls-14 {
        fill: url(#radial-gradient-13);
      }

      .cls-15 {
        fill: url(#radial-gradient-14);
      }

      .cls-16 {
        fill: url(#radial-gradient-15);
      }

      .cls-17 {
        fill: url(#radial-gradient-16);
      }

      .cls-18 {
        fill: url(#radial-gradient-17);
      }

      .cls-19 {
        fill: url(#radial-gradient-18);
      }
    </style>
    <radialGradient id="radial-gradient" cx="-0.588" cy="-0.101" r="4.475" gradientTransform="translate(0.189) scale(0.621 1)" gradientUnits="objectBoundingBox">
      <stop offset="0" stop-color="#8abb2a"/>
      <stop offset="1" stop-color="#00aef0"/>
    </radialGradient>
    <radialGradient id="radial-gradient-2" cx="0.387" cy="-0.182" r="4.779" gradientTransform="translate(0.094) scale(0.812 1)" xlink:href="#radial-gradient"/>
    <radialGradient id="radial-gradient-3" cx="-0.177" cy="-1.314" r="9.318" gradientTransform="translate(0.346) scale(0.308 1)" xlink:href="#radial-gradient"/>
    <radialGradient id="radial-gradient-4" cx="-0.596" cy="-2.635" r="4.443" gradientTransform="translate(0.186) scale(0.627 1)" xlink:href="#radial-gradient"/>
    <radialGradient id="radial-gradient-5" cx="0.392" cy="-2.829" r="4.779" gradientTransform="translate(0.094) scale(0.812 1)" xlink:href="#radial-gradient"/>
    <radialGradient id="radial-gradient-6" cx="-0.177" cy="-5.516" r="9.318" gradientTransform="translate(0.346) scale(0.308 1)" xlink:href="#radial-gradient"/>
    <radialGradient id="radial-gradient-7" cx="-9.246" cy="-2.531" r="14.342" gradientTransform="translate(0)" xlink:href="#radial-gradient"/>
    <radialGradient id="radial-gradient-8" cx="-7.636" cy="-0.35" r="14.342" gradientTransform="translate(0)" xlink:href="#radial-gradient"/>
    <radialGradient id="radial-gradient-9" cx="-8.544" cy="-1.373" r="14.342" gradientTransform="translate(0)" xlink:href="#radial-gradient"/>
    <radialGradient id="radial-gradient-10" cx="0.314" cy="0.3" r="2.862" gradientTransform="translate(0.272) scale(0.455 1)" xlink:href="#radial-gradient"/>
    <radialGradient id="radial-gradient-11" cx="7.206" cy="-6.234" r="14.342" gradientTransform="matrix(0.894, 0.448, -0.448, 0.894, -3.452, -2.462)" xlink:href="#radial-gradient"/>
    <radialGradient id="radial-gradient-12" cx="2.448" cy="-10.616" r="14.342" gradientTransform="matrix(0.999, 0.052, -0.052, 0.999, -0.559, -0.112)" xlink:href="#radial-gradient"/>
    <radialGradient id="radial-gradient-13" cx="7.191" cy="-7.504" r="14.342" gradientTransform="translate(-4.134 -2.352) rotate(27.316)" xlink:href="#radial-gradient"/>
    <radialGradient id="radial-gradient-14" cx="0.07" cy="-1.696" r="2.855" gradientTransform="translate(0.272) scale(0.457 1)" xlink:href="#radial-gradient"/>
    <radialGradient id="radial-gradient-15" cx="14.002" cy="10.955" r="15.89" gradientTransform="translate(-0.066) scale(1.131 1)" xlink:href="#radial-gradient"/>
    <radialGradient id="radial-gradient-16" cx="-7.097" cy="-5.729" r="9.313" gradientTransform="translate(-0.052) scale(1.104 1)" xlink:href="#radial-gradient"/>
    <radialGradient id="radial-gradient-17" cx="12.85" cy="-9.389" r="14.876" gradientTransform="translate(-0.057) scale(1.114 1)" xlink:href="#radial-gradient"/>
    <radialGradient id="radial-gradient-18" cx="-6.128" cy="5.756" r="7.935" gradientTransform="translate(-0.062) scale(1.124 1)" xlink:href="#radial-gradient"/>
  </defs>
  <g id="Group_9" data-name="Group 9" transform="translate(-452.13 -108.689)">
    <path id="Path_1" data-name="Path 1" class="cls-1" d="M466.727,357.618q-8.34,0-12.1-4.865a12.833,12.833,0,0,1-2.5-7.925q0-5.975,6.256-13.762l42.123-51.716H464.086q-11.26,0-11.261-10.15,0-10.008,11.261-10.009h54.079q7.506,0,10.982,4.448a12.294,12.294,0,0,1,2.363,7.507q0,5.7-5.7,12.652l-43.652,53.245h38.647q6.532,0,9.593,3.892a9.8,9.8,0,0,1,2.085,6.256,10,10,0,0,1-2.085,6.395q-3.06,4.035-9.593,4.032Z"/>
    <path id="Path_2" data-name="Path 2" class="cls-1" d="M827.133,356.857c-4.868,0-8.272-2.6-10.408-7.939l-4.732-11.69H770.48l-4.863,11.812c-2.217,5.258-5.538,7.817-10.149,7.817a9.572,9.572,0,0,1-6.954-2.623,8.984,8.984,0,0,1-2.988-7.188,15.42,15.42,0,0,1,1.371-5.936l30.816-67.688c3.19-7.056,7.764-10.486,13.982-10.486s10.743,3.427,13.848,10.475l30.566,67.458a14.791,14.791,0,0,1,1.229,5.651,10.142,10.142,0,0,1-3.12,7.716A10.025,10.025,0,0,1,827.133,356.857Zm-50.092-35.693h28.382L791.306,286.6Z"/>
    <path id="Path_3" data-name="Path 3" class="cls-1" d="M595.867,258.7A49.708,49.708,0,1,0,645.575,308.4,49.708,49.708,0,0,0,595.867,258.7Zm0,77.719A28.011,28.011,0,1,1,623.878,308.4,28.011,28.011,0,0,1,595.867,336.415Z"/>
    <g id="Group_5" data-name="Group 5">
      <path id="Path_4" data-name="Path 4" class="cls-1" d="M701.671,358.113h0a11.676,11.676,0,0,1-11.594-11.756V309.4a11.676,11.676,0,0,1,11.594-11.756h0A11.676,11.676,0,0,1,713.265,309.4v36.961A11.676,11.676,0,0,1,701.671,358.113Z"/>
    </g>
    <g id="Group_6" data-name="Group 6">
      <path id="Path_5" data-name="Path 5" class="cls-2" d="M763.162,242.364a11.75,11.75,0,0,1-9.756-5.178,128.367,128.367,0,0,0-104.084-56.5,11.76,11.76,0,0,1,.4-23.517A151.911,151.911,0,0,1,772.9,224.02a11.762,11.762,0,0,1-9.733,18.344Z"/>
      <path id="Path_6" data-name="Path 6" class="cls-3" d="M530.847,242.942a11.763,11.763,0,0,1-9.788-18.265,152.34,152.34,0,0,1,81-60.976,11.761,11.761,0,0,1,7.046,22.441,128.728,128.728,0,0,0-68.444,51.541A11.752,11.752,0,0,1,530.847,242.942Z"/>
      <path id="Path_7" data-name="Path 7" class="cls-4" d="M592.4,243.3a11.762,11.762,0,0,1-6.813-21.354,106.5,106.5,0,0,1,122.994-.034,11.76,11.76,0,1,1-13.594,19.193,82.98,82.98,0,0,0-95.794.026A11.708,11.708,0,0,1,592.4,243.3Z"/>
      <path id="Path_8" data-name="Path 8" class="cls-5" d="M763.742,374.7a11.747,11.747,0,0,0-9.727,5.231,128.365,128.365,0,0,1-103.772,57.074,11.76,11.76,0,0,0,.526,23.514,151.91,151.91,0,0,0,122.807-67.528,11.761,11.761,0,0,0-9.834-18.291Z"/>
      <path id="Path_9" data-name="Path 9" class="cls-6" d="M530.419,374.3a11.761,11.761,0,0,0-9.787,18.264,152.332,152.332,0,0,0,81,60.976,11.76,11.76,0,1,0,7.045-22.44,128.731,128.731,0,0,1-68.443-51.542A11.752,11.752,0,0,0,530.419,374.3Z"/>
      <path id="Path_10" data-name="Path 10" class="cls-7" d="M592.4,374.324a11.762,11.762,0,0,0-6.813,21.354,106.5,106.5,0,0,0,122.994.034,11.76,11.76,0,1,0-13.594-19.193,82.982,82.982,0,0,1-95.794-.025A11.7,11.7,0,0,0,592.4,374.324Z"/>
      <circle id="Ellipse_1" data-name="Ellipse 1" class="cls-8" cx="13.293" cy="13.293" r="13.293" transform="translate(802.977 215.893)"/>
      <circle id="Ellipse_2" data-name="Ellipse 2" class="cls-9" cx="13.293" cy="13.293" r="13.293" transform="translate(760.159 157.918)"/>
      <circle id="Ellipse_3" data-name="Ellipse 3" class="cls-10" cx="13.293" cy="13.293" r="13.293" transform="translate(784.295 185.1)"/>
      <path id="Path_11" data-name="Path 11" class="cls-11" d="M755.329,157.22a13.25,13.25,0,0,0-3.923-18.986,199.988,199.988,0,0,0-104.293-29.545c-76.614,0-147.4,44.588-180.549,113.658-3.027,6.307-1.156,14.156,4.866,17.717a13.233,13.233,0,0,0,18.712-5.691A173.4,173.4,0,0,1,737.835,160.92a13.127,13.127,0,0,0,17.494-3.7Z"/>
      <circle id="Ellipse_4" data-name="Ellipse 4" class="cls-12" cx="13.293" cy="13.293" r="13.293" transform="matrix(0.894, -0.448, 0.448, 0.894, 460.167, 382.622)"/>
      <circle id="Ellipse_5" data-name="Ellipse 5" class="cls-13" cx="13.293" cy="13.293" r="13.293" transform="translate(506.963 433.864) rotate(-3.006)"/>
      <circle id="Ellipse_6" data-name="Ellipse 6" class="cls-14" cx="13.293" cy="13.293" r="13.293" transform="matrix(0.888, -0.459, 0.459, 0.888, 478.836, 413.595)"/>
      <path id="Path_12" data-name="Path 12" class="cls-15" d="M539.084,460.4a13.251,13.251,0,0,0,3.959,18.979,199.99,199.99,0,0,0,104.349,29.347c76.613-.146,147.315-44.869,180.333-114,3.015-6.312,1.128-14.158-4.9-17.707a13.232,13.232,0,0,0-18.7,5.727,173.4,173.4,0,0,1-247.553,73.923,13.127,13.127,0,0,0-17.487,3.733Z"/>
    </g>
    <g id="Group_8" data-name="Group 8">
      <path id="Path_13" data-name="Path 13" class="cls-16" d="M664.224,275.153c.215-.244.427-.493.647-.732C664.646,274.657,664.428,274.9,664.224,275.153Z"/>
      <path id="Path_14" data-name="Path 14" class="cls-17" d="M682.442,289.6q-.581.6-1.131,1.249A11.549,11.549,0,0,0,682.442,289.6Z"/>
      <path id="Path_15" data-name="Path 15" class="cls-1" d="M673.284,270.808a11.588,11.588,0,0,0-8.413,3.613c-.22.239-.432.488-.647.732a11.624,11.624,0,0,0,17.087,15.693q.549-.645,1.131-1.249a11.62,11.62,0,0,0-9.158-18.789Z"/>
      <g id="Group_7" data-name="Group 7">
        <path id="Path_16" data-name="Path 16" class="cls-18" d="M721.641,290.547c-.231-.264-.462-.528-.7-.782C721.161,290.037,721.4,290.3,721.641,290.547Z"/>
        <path id="Path_17" data-name="Path 17" class="cls-19" d="M737.951,273.985c.447.475.874.972,1.3,1.466A11.644,11.644,0,0,0,737.951,273.985Z"/>
        <path id="Path_18" data-name="Path 18" class="cls-1" d="M729.959,294.056a11.581,11.581,0,0,0,8.027-3.227q.549-.645,1.132-1.25a11.578,11.578,0,0,0,.137-14.128c-.43-.494-.857-.991-1.3-1.466a11.6,11.6,0,0,0-16.4.418c-.22.24-.431.488-.647.733a11.613,11.613,0,0,0,.04,14.629c.24.254.471.518.7.782A11.589,11.589,0,0,0,729.959,294.056Z"/>
        <path id="Path_19" data-name="Path 19" class="cls-1" d="M739.255,275.451c-.43-.494-.856-.991-1.3-1.466a49.837,49.837,0,0,0-73.08.436c-.22.239-.432.488-.647.732a11.624,11.624,0,0,0,17.087,15.694q.549-.646,1.131-1.25a26.659,26.659,0,0,1,38.5.168c.24.254.471.518.7.782a11.605,11.605,0,0,0,16.345.282q.549-.645,1.132-1.25a11.578,11.578,0,0,0,.137-14.128Z"/>
      </g>
    </g>
  </g>
</svg>
